# xmcd
#
# Track frame offsets:
#	150
#	17255
#	34057
#	51619
#	65820
#	77854
#	93976
#	109761
#	125769
#	140443
#	157701
#	176645
#	195308
#	214966
#	231925
#	250903
#
# Disc length: 3489 seconds
#
# Revision: 1
# Processed by: cddbd v1.5.2PL0 Copyright (c) Steve Scherf et al.
# Submitted via: audiograbber 1.83.01
#
DISCID=de0d9f10
DTITLE=Diverse kunstnere country - Diverse kunstnere country
DYEAR=2000
DGENRE=Country
TTITLE0=If I Were A Poet  - Cayley Carmes
TTITLE1=Roses Sweet Choc´ Lates And Wine - Bend It In The River Boys
TTITLE2=Nefertiti  - Asenath In Spandex
TTITLE3=All My Love - Mark C. Gage
TTITLE4=Todo Mi Amor  - Escogido
TTITLE5=You Gotta Kiss A Lot Of Frogs To Find The Prince  - Rosie Rivet
TTITLE6=Happines Bell - The Wedding Band
TTITLE7=Happines Bell - The Wedding Band
TTITLE8=Please Mister Lee - Jeremiah Jeriah
TTITLE9=It´s A Woman Behind The Man - P. Coley
TTITLE10=Take The Roses One By One  - Girl From Central Park
TTITLE11=Angels Play Guitars  - Mark C. Gage
TTITLE12=Within The Blink Of An Eye  - Mark C. Gage
TTITLE13=Never Sleep Under A Coconut Tree  - P. Coley
TTITLE14=Two Little Seabirds Lost  - P. Coley
TTITLE15=Take A Little Time To Be Happy  - Samantha
EXTD=
EXTT0=
EXTT1=
EXTT2=
EXTT3=
EXTT4=
EXTT5=
EXTT6=
EXTT7=
EXTT8=
EXTT9=
EXTT10=
EXTT11=
EXTT12=
EXTT13=
EXTT14=
EXTT15=
PLAYORDER=
